<svg xmlns="http://www.w3.org/2000/svg" width="94.177" height="95.724" viewBox="0 0 94.177 95.724">
  <g id="social-media-email" transform="translate(-564.943 -12571.835)">
    <path id="border-email" d="M40.166,13.054c29.236.178,42.718,13.518,46.11,33.084s-9.96,55.41-38.129,55.41S0,87.638,0,59.469,10.93,12.876,40.166,13.054Z" transform="matrix(-0.996, 0.087, -0.087, -0.996, 660.258, 12672.997)" fill="#195090"/>
    <g id="baseline-email-24px" transform="translate(583 12592)">
      <path id="Path_120" data-name="Path 120" d="M46.211,4H6.912A4.906,4.906,0,0,0,2.025,8.912L2,38.386A4.927,4.927,0,0,0,6.912,43.3h39.3a4.927,4.927,0,0,0,4.912-4.912V8.912A4.927,4.927,0,0,0,46.211,4Zm0,9.825L26.561,26.105,6.912,13.825V8.912L26.561,21.193,46.211,8.912Z" transform="translate(2.912 5.825)" fill="#fff"/>
      <path id="Path_121" data-name="Path 121" d="M0,0H58.948V58.948H0Z" fill="none"/>
    </g>
  </g>
</svg>
