<svg xmlns="http://www.w3.org/2000/svg" width="120.269" height="120.61" viewBox="0 0 120.269 120.61">
  <g id="social-media-twitter" transform="translate(-336.835 -12561.599)">
    <path id="border-twitter" d="M45.157,16.81c19.514,1.285,37.727,9.762,41.12,29.329s-9.96,55.41-38.129,55.41S0,87.638,0,59.469,25.643,15.525,45.157,16.81Z" transform="matrix(-0.616, -0.788, 0.788, -0.616, 377.082, 12692.514)" fill="#195090"/>
    <path id="Path_87" data-name="Path 87" d="M91.563,141.246c19.875,0,30.745-16.466,30.745-30.745,0-.468,0-.933-.032-1.4a21.986,21.986,0,0,0,5.391-5.593,21.569,21.569,0,0,1-6.206,1.7,10.843,10.843,0,0,0,4.751-5.977,21.655,21.655,0,0,1-6.862,2.623,10.816,10.816,0,0,0-18.415,9.855,30.678,30.678,0,0,1-22.27-11.29,10.814,10.814,0,0,0,3.345,14.425,10.725,10.725,0,0,1-4.9-1.353v.137a10.81,10.81,0,0,0,8.669,10.593,10.789,10.789,0,0,1-4.879.185,10.818,10.818,0,0,0,10.1,7.5,21.682,21.682,0,0,1-13.42,4.635A22,22,0,0,1,75,136.392a30.592,30.592,0,0,0,16.563,4.845" transform="translate(297 12503.86)" fill="#fff"/>
  </g>
</svg>
