<svg width="80" height="111" viewBox="0 0 80 111" fill="none" xmlns="http://www.w3.org/2000/svg">
<path d="M58.6905 53.7643C59.8721 53.3273 60.7432 52.7086 61.2158 51.6637C61.6853 50.5576 61.6217 49.3326 60.8184 48.3578C60.3352 47.7484 59.6262 47.1406 58.8548 46.7782C57.12 45.2584 54.2322 44.7269 52.0354 45.9062C51.5246 46.2161 51.0138 46.526 50.6599 46.9573C50.2932 47.1436 50.0082 47.452 49.7952 47.6985C49.6542 47.8833 49.5885 48.0676 49.5228 48.2518C49.0311 48.9292 48.6994 49.7893 48.8191 50.6463C48.9993 52.667 51.1293 54.5517 53.5593 54.9639C55.4562 55.2572 57.3902 54.8149 58.6905 53.7643Z" fill="#4281A4" fill-opacity="0.38"/>
<path d="M51.189 67.9677C51.7363 66.9229 51.983 65.8802 51.6972 64.7186C51.5055 63.9239 51.2451 63.2521 50.684 62.5823C49.3988 60.999 47.165 59.9734 44.838 60.0507C44.4622 60.0533 44.1647 60.1166 43.8672 60.1799C43.6417 60.1814 43.4194 60.2442 43.197 60.3069C42.4517 60.4345 41.7191 60.807 41.14 61.2397C40.4858 61.6729 39.9099 62.1667 39.4906 62.782C38.9274 63.5207 38.6744 64.441 38.7972 65.3588C38.8131 65.6648 38.9009 65.9092 38.992 66.2148C39.0799 66.4591 39.0926 66.704 39.1804 66.9483C39.5287 67.8645 40.2497 68.7168 41.1115 69.3845C41.9732 70.0521 43.051 70.5346 44.1911 70.7717C46.841 71.1208 50.0911 69.9961 51.189 67.9677Z" fill="#4281A4" fill-opacity="0.38"/>
<path d="M36.3153 52.2248C40.0538 52.0766 42.558 49.7969 42.6275 46.8002C42.6486 45.7606 42.6665 44.6598 42.7625 43.6196C42.8427 42.2739 41.9492 40.9348 40.7002 39.9651C40.6126 39.7211 40.4534 39.5388 40.216 39.2959C39.3384 38.2624 38.1738 37.4756 36.66 37.1803C35.2212 36.8846 33.5081 37.0799 32.2666 37.6999C30.7349 38.5055 29.9712 39.6725 29.7413 41.0193C29.5978 41.1426 29.4575 41.327 29.389 41.4498C27.6337 43.7244 28.0884 46.7174 30.1401 48.7211C30.4777 49.4525 30.9619 50.1217 31.7425 50.7278C32.7605 51.5768 34.6708 52.2974 36.3153 52.2248Z" fill="#4281A4" fill-opacity="0.38"/>
<path d="M20.7895 73.7445C22.6512 73.3641 24.3402 72.556 25.7091 71.3825C27.8707 69.5296 29.3074 66.7627 29.1739 64.1904C29.0659 62.1081 28.143 60.2765 26.7878 58.8155C25.3479 57.1712 23.322 55.8374 20.7356 55.3038C20.0521 55.186 19.3687 55.0682 18.6885 55.0116C16.8703 54.7791 14.9206 54.915 13.0685 55.4792C7.13598 57.1743 2.2026 62.1709 4.67032 67.6678C7.13804 73.1647 14.4342 75.9939 20.7895 73.7445Z" fill="#4281A4" fill-opacity="0.38"/>
<path d="M39.5912 86.716C39.8888 86.6527 40.1863 86.5894 40.4839 86.5261C44.1423 86.0109 46.1319 82.3225 44.0375 79.6422C43.3916 78.7893 42.5985 77.9986 41.7334 77.2697C41.4951 77.0263 41.1817 76.7835 40.8714 76.6019C40.091 76.0561 39.1603 75.5113 38.1766 75.3956C37.5688 75.2773 36.9673 75.2815 36.3627 75.2244C35.5325 75.1689 34.4207 75.4828 33.7632 75.8548C32.8112 76.3513 32.0975 77.0912 31.6909 77.9514C31.5596 78.3198 31.4283 78.6881 31.369 78.9947C31.2314 79.2406 31.0185 79.4871 30.9561 79.7325C30.4838 80.7769 30.3218 82.0029 30.83 83.1018C31.4198 84.3226 32.3887 85.6021 33.9241 86.2039C34.5382 86.4446 35.2276 86.6848 35.9137 86.8638C37.2765 87.0382 38.2475 86.909 39.5912 86.716Z" fill="#4281A4" fill-opacity="0.38"/>
<path d="M17.517 42.7337C17.5924 42.7332 17.5892 42.6719 17.6645 42.6714L17.7399 42.6709C19.0833 42.4163 20.2601 41.8563 20.8055 40.7487C21.2289 40.1938 21.4199 39.5179 21.3849 38.8436C21.1886 36.5146 18.6854 34.7535 15.8978 34.7727C14.0897 34.7851 12.464 35.4096 11.231 36.3379C10.8702 36.6471 10.5848 36.9556 10.3778 37.325C10.3057 37.3868 10.3057 37.3868 10.2335 37.4487C9.65944 38.0045 9.31457 38.6202 9.20209 39.3568C8.98348 40.9528 10.347 42.5378 12.3281 42.9534C12.8619 43.0724 13.4678 43.1296 14.0737 43.1867C15.138 43.3634 16.4124 43.2319 17.517 42.7337Z" fill="#4281A4" fill-opacity="0.38"/>
<path d="M56.2753 30.2688C57.9344 30.3186 59.4144 29.8181 60.4989 28.9527C61.2325 28.5799 61.8844 28.0851 62.3732 27.3463C62.9997 26.3615 63.2245 24.8891 62.7909 23.7889C62.6244 23.4837 62.458 23.1784 62.2947 22.9344C61.8643 21.8955 61.0671 21.043 59.8999 20.3156C59.1971 19.8302 58.4285 19.5291 57.5157 19.3515C56.9072 19.2331 56.3019 19.176 55.6997 19.1802C55.1729 19.1838 54.6492 19.2487 54.1286 19.3749L54.0534 19.3754C52.4823 19.5701 50.9175 19.8873 49.8426 20.9365C48.9086 21.801 48.3605 22.8466 48.1951 24.0121C47.8803 26.6496 49.9676 29.1478 53.2423 29.8607C53.7003 29.9801 54.1551 30.0382 54.5314 30.0356C54.9894 30.1551 55.5195 30.2127 56.0463 30.2091C56.0495 30.2703 56.2001 30.2693 56.2753 30.2688Z" fill="#4281A4" fill-opacity="0.38"/>
<path d="M32.4099 26.6739C32.557 26.6117 32.6321 26.6112 32.7793 26.5489C34.244 25.8041 35.5171 24.2646 35.2155 22.7972L35.2123 22.736C35.0081 21.6965 34.7382 20.8412 33.8704 20.0512C32.9994 19.2001 32.1538 18.8385 30.9325 18.4796C29.5577 18.0605 27.8422 18.3172 26.587 18.7545C25.1847 19.254 24.1676 19.9345 23.3951 20.9807C22.2002 22.5809 22.1484 24.4793 22.8416 26.2502C23.3654 27.6548 24.7783 28.8083 26.5256 29.1637C29.0243 29.5138 31.4532 28.5174 32.4099 26.6739Z" fill="#4281A4" fill-opacity="0.38"/>
<path d="M64.608 95.4615C65.5759 95.2711 66.3839 94.898 67.032 94.3423C67.8369 93.908 68.4098 93.3528 68.8228 92.615C69.3142 91.9379 69.5768 91.2011 69.6075 90.3434C69.7918 89.5459 69.6753 88.7505 69.3333 87.9566C68.9033 86.9184 68.2573 86.0654 67.3169 85.3369C66.1478 84.5487 65.2953 84.0646 63.7725 83.7076C61.1123 83.1748 58.4372 83.8057 56.5617 85.3498C55.8384 85.906 55.4191 86.5214 55.1564 87.2582C54.7434 87.996 54.556 88.7323 54.6756 89.589C54.7794 90.1395 54.88 90.6287 54.9838 91.1793C55.2507 91.9736 55.7368 92.644 56.3669 93.1909C56.6899 93.6174 57.16 93.9817 57.7774 94.2836C58.4796 94.7688 59.3257 95.1304 60.3127 95.3074C60.4662 95.3676 60.5414 95.367 60.695 95.4272C61.9923 95.7857 63.3457 95.7764 64.608 95.4615Z" fill="#4281A4" fill-opacity="0.38"/>
<path d="M66.2779 72.7549C66.5789 72.7528 66.8014 72.69 67.1024 72.6879C67.4755 72.6241 67.8454 72.499 68.14 72.3744C68.2153 72.3739 68.3658 72.3728 68.4378 72.3111C69.6291 72.0577 70.6508 71.4379 71.362 70.6365C71.7223 70.3276 71.9322 70.0198 72.0604 69.59C72.2671 69.2209 72.3985 68.8523 72.3762 68.4236C72.5045 67.9938 72.4822 67.565 72.3127 67.1985C72.2809 66.586 72.0233 65.975 71.5432 65.4268C71.3832 65.2441 71.2231 65.0614 71.0631 64.8786C70.743 64.5132 70.3477 64.1483 69.9556 63.8446C69.3282 63.3587 68.7887 63.1173 68.2492 62.876C68.2492 62.876 68.2492 62.876 68.3245 62.8754C68.2492 62.876 68.2461 62.8147 68.1708 62.8152C67.6345 62.6351 67.0982 62.455 66.562 62.2748C65.6463 62.0361 64.8185 62.0418 63.9219 62.1705C63.3199 62.1746 62.7995 62.3008 62.2855 62.5494C61.4705 62.8002 60.8123 63.1723 60.2358 63.6665C59.3709 64.4078 58.8134 65.2695 58.4912 66.3134C57.9062 68.0944 58.7636 70.1106 60.4106 71.386C61.2733 72.0541 62.1985 72.4766 63.34 72.7138C64.2525 72.8914 65.2339 72.9459 66.2779 72.7549Z" fill="#4281A4" fill-opacity="0.38"/>
<path d="M19.4666 95.5739C20.0562 95.3247 20.492 95.0152 20.8494 94.645C21.8525 93.6573 22.4761 92.611 22.6319 91.2614C22.8843 88.8691 21.2481 86.3672 18.5557 85.2825C16.4466 83.8259 13.7669 82.9863 10.9812 83.0055C8.94841 83.0195 6.80318 83.7698 5.43312 84.9439C4.92836 85.3764 4.50526 85.931 4.15744 86.4851C3.80643 86.9779 3.53708 87.5927 3.33984 88.1457C2.70782 90.4793 3.66006 92.8632 5.78194 94.5649C7.51146 95.9628 9.7203 96.4379 11.9291 96.9131C14.5272 97.6307 17.5101 97.0585 19.4666 95.5739Z" fill="#4281A4" fill-opacity="0.38"/>
<path d="M50.6397 12.4286C51.4487 12.0553 52.1008 11.5605 52.5928 10.8828C53.1664 10.3272 53.5832 9.65016 53.7677 8.85208C53.8175 8.3614 53.8642 7.80944 53.914 7.31875C53.8599 6.27715 53.5079 5.29889 52.7826 4.3845C52.7795 4.32323 52.7795 4.32322 52.701 4.26247C52.3023 3.83617 51.9068 3.47114 51.5081 3.04483C50.9652 2.74211 50.4976 2.43887 49.9547 2.13615C49.3429 1.95649 48.7279 1.71556 48.1914 1.53538C47.3569 1.41854 46.4472 1.30223 45.619 1.30794C45.3932 1.3095 45.1673 1.31105 44.9415 1.31261C44.5651 1.31521 44.1165 1.37958 43.7433 1.44345C43.0657 1.44812 42.4698 1.57482 41.9588 1.8848C41.664 2.00942 41.2939 2.13456 40.9991 2.25918C39.9706 2.75661 39.1054 3.49809 38.5476 4.36003C38.2719 4.85228 37.9963 5.34452 37.8711 5.83572L37.8743 5.897C37.7428 6.26566 37.7651 6.69456 37.7089 7.0627C37.7121 7.12397 37.7184 7.24651 37.6463 7.3083C37.7471 7.79795 37.8478 8.28761 37.9485 8.77726C38.027 8.83801 38.0333 8.96055 38.1118 9.0213C38.2783 9.32662 38.4447 9.63193 38.608 9.87598C38.6112 9.93725 38.6897 9.99799 38.6929 10.0593C38.8562 10.3033 39.0915 10.4856 39.2548 10.7296C39.3333 10.7904 39.3365 10.8516 39.4118 10.8511C39.4149 10.9124 39.4902 10.9119 39.4934 10.9731C40.4445 11.886 41.6841 12.5517 43.1272 12.7869C43.5068 12.8456 43.8864 12.9042 44.3413 12.9624C44.4165 12.9619 44.5703 13.0221 44.6456 13.0216C46.779 13.4972 48.9527 13.2984 50.6397 12.4286Z" fill="#4281A4" fill-opacity="0.38"/>
<path d="M70.4699 46.0335C72.4731 45.4682 74.3099 44.5977 75.3624 43.1197C75.6475 42.8114 75.9326 42.503 76.1425 42.1952C76.3428 41.7036 76.6184 41.2115 76.8187 40.7199C76.8653 40.1681 76.912 39.6163 77.0339 39.0639C77.0646 38.2058 76.7975 37.4111 76.2326 36.6796C76.0535 36.1294 75.6549 35.7032 75.1844 35.3388C74.8579 34.8508 74.3873 34.4864 73.7726 34.2455C73.302 33.8811 72.6841 33.579 72.0757 33.4606C71.4609 33.2197 70.7741 33.0406 70.0937 32.9841C69.4789 32.7432 68.8705 32.6248 68.1933 32.6295C67.7354 32.5101 67.2839 32.5132 66.8324 32.5163C66.083 32.5828 65.3368 32.7105 64.5875 32.7769C63.4682 32.9684 62.5875 33.4035 61.7915 34.0217C61.2053 34.3322 60.7008 34.7646 60.35 35.2572C59.6325 35.9362 59.147 36.7362 58.9658 37.5953C58.7283 38.8225 58.7919 40.0476 59.1565 41.2706C59.43 42.1879 59.9949 42.9193 60.7824 43.5879C61.4226 44.3189 62.2069 44.9262 63.2074 45.3483C65.4438 46.3746 68.1688 46.6622 70.4699 46.0335Z" fill="#4281A4" fill-opacity="0.38"/>
<path d="M45.0548 109.822C46.4666 109.507 47.7842 108.824 48.7949 108.021C50.3845 106.785 51.0375 104.883 51.0206 103.107C50.9878 101.026 49.8278 98.9521 47.9451 97.4344C46.8486 96.5848 45.2262 95.7388 43.7827 95.4427C41.9602 95.0879 40.3886 95.2212 38.6762 95.5391C36.9639 95.8571 35.0017 97.1564 34.2419 98.4474C34.0418 98.9387 33.7667 99.4304 33.5666 99.9216C33.3105 100.781 33.2767 101.577 33.5465 102.432C33.6503 102.982 33.9043 103.532 34.1582 104.081C34.281 104.999 34.6324 105.976 35.2748 106.767C35.5161 107.072 35.8325 107.376 36.149 107.68C36.2273 107.74 36.2305 107.802 36.3056 107.801C36.4654 107.984 36.6972 108.105 36.857 108.287C36.7787 108.226 36.7755 108.165 36.7004 108.166C37.7216 109.016 39.034 109.68 40.5495 109.915C42.1433 110.21 43.3456 110.202 45.0548 109.822Z" fill="#4281A4" fill-opacity="0.38"/>
</svg>
