<svg width="62" height="45" viewBox="0 0 62 45" fill="none" xmlns="http://www.w3.org/2000/svg">
<path d="M29.8354 44.6C36.5397 43.9658 42.6961 41.7735 47.7749 39.1713C52.6724 36.6866 57.4286 33.6003 59.6811 30.1142C62.1418 26.2433 61.4059 21.618 60.6321 17.7383C59.3098 11.053 55.2269 3.7185 43.2379 1.18143C30.7656 -1.45793 19.9557 3.92033 14.2992 10.1423C8.46555 16.5346 6.74548 24.4731 15.3798 29.7693C19.1716 32.0789 25.0505 33.6998 30.9792 32.8755C36.7659 32.0602 41.8487 29.5108 45.1066 26.7311C48.9453 23.4637 51.3817 19.2758 49.9061 15.5465C48.6646 12.3863 43.8795 9.52872 37.7438 9.5166C31.9868 9.48067 26.4943 12.2682 26.1288 15.556C25.8336 18.5209 29.6639 21.3324 35.0363 21.3129C35.1783 21.3039 35.1701 21.1983 35.0734 21.1778C30.8112 20.1719 27.7049 17.5007 30.2117 14.8479C32.3663 12.5623 37.2748 11.4572 41.2118 12.5632C50.9352 15.3225 45.1281 23.9162 38.9372 27.5174C35.4331 29.5694 30.1028 30.7541 25.4186 29.8279C21.3146 29.0243 18.3105 27.0633 16.7593 24.8251C13.279 19.762 16.843 13.539 22.4874 9.0166C25.0842 6.91557 28.5964 4.96928 33.0107 4.24032C37.4249 3.51136 42.1341 4.14409 45.5296 5.62923C53.3058 9.04183 54.8546 15.5802 55.2647 20.9161C55.4962 23.9275 55.4248 27.3295 52.5948 30.1088C50.1644 32.5179 46.2384 34.6494 42.3232 36.3026C38.3647 38.0115 33.651 39.7945 28.6817 40.1071C24.0436 40.3989 20.1315 38.9994 17.1437 37.2497C10.5263 33.4457 8.78757 27.5298 7.95554 22.2735C7.48541 19.2506 7.34861 16.2333 8.01636 13.1653C8.6902 10.1766 9.63785 7.038 11.8958 4.24162C12.6767 3.26348 10.4678 2.36727 9.10885 3.24906C4.94965 6.05889 2.15014 9.23441 1.09096 12.7782C0.0730108 16.2398 0.153741 19.7649 0.652299 23.1577C1.57975 29.6555 3.66678 37.0094 12.4275 41.4748C17.0258 43.7602 23.3185 45.1958 29.8354 44.6Z" fill="#C8686D" fill-opacity="0.71"/>
</svg>
