<svg width="64" height="125" viewBox="0 0 64 125" fill="none" xmlns="http://www.w3.org/2000/svg">
<path d="M60.0402 1.08129C50.8642 1.54678 41.6881 1.60496 32.512 1.31403C28.068 1.13947 23.624 0.79035 19.1799 0.732163C16.8756 0.673976 14.6125 0.499423 12.3082 0.55761C10.5388 0.615797 8.15219 0.441222 6.42396 1.48858C5.93018 1.48858 5.39523 1.77952 4.9426 2.36139C3.54356 4.28155 2.51484 5.79442 2.59714 8.70376C2.63829 11.2058 3.21438 13.8242 3.87275 16.1517C5.02491 20.1665 6.71199 23.6577 8.81055 26.858C13.1311 33.3749 19.0976 37.7971 25.311 39.1936C32.3474 40.7647 39.1369 39.1354 45.5972 35.0624C51.3991 31.3966 59.0527 25.927 62.0565 17.3154C63.6613 12.7768 66.2948 0.790353 60.0402 1.08129Z" fill="#EDC68D"/>
<path d="M58.7233 43.6155C49.5472 44.081 40.3712 44.1392 31.1951 43.8482C26.7511 43.6737 22.307 43.3245 17.863 43.2664C15.5587 43.2082 13.2956 43.0336 10.9912 43.0918C9.22187 43.15 6.83527 42.9754 5.10704 44.0228C4.61326 44.0228 4.07831 44.3137 3.62568 44.8956C2.22664 46.8157 1.19795 48.3286 1.28025 51.2379C1.32139 53.74 1.89746 56.3584 2.55583 58.6859C3.70799 62.7007 5.39507 66.192 7.49364 69.3922C11.8142 75.9092 17.7807 80.3314 23.9941 81.7279C31.0305 83.2989 37.82 81.6697 44.2803 77.5966C50.0822 73.9308 57.7358 68.4612 60.7396 59.8496C62.3444 55.2528 64.9779 43.3246 58.7233 43.6155Z" fill="#C8686D" fill-opacity="0.71"/>
<path d="M57.4478 86.092C48.2717 86.5575 39.0956 86.6157 29.9195 86.3248C25.4755 86.1502 21.0314 85.8011 16.5874 85.7429C14.2831 85.6847 12.0199 85.5102 9.71564 85.5684C7.94626 85.6265 5.55964 85.452 3.8314 86.4994C3.33762 86.4994 2.8027 86.7903 2.35007 87.3722C0.951028 89.2923 -0.0776864 90.8052 0.00461037 93.7145C0.0457587 96.2165 0.621851 98.8349 1.28023 101.162C2.43238 105.177 4.11946 108.669 6.21803 111.869C10.5386 118.386 16.5051 122.808 22.7185 124.204C29.7549 125.775 36.5444 124.146 43.0047 120.073C48.8066 116.407 56.4602 110.938 59.464 102.326C61.0688 97.7876 63.7023 85.8011 57.4478 86.092Z" fill="#49AB8B" fill-opacity="0.37"/>
</svg>
