<svg width="277" height="224" viewBox="0 0 277 224" fill="none" xmlns="http://www.w3.org/2000/svg">
<path d="M261.919 122.99C261.426 119.523 261.096 116.057 261.261 112.59C261.59 97.6822 269.161 83.3526 271.959 68.6762C274.922 53.8843 272.124 37.1278 256.159 27.305C237.23 15.7488 208.92 18.5223 183.902 17.1356C162.67 15.98 142.26 11.2419 121.522 7.77508C100.783 4.30822 78.8918 2.22811 58.3177 6.04165C40.2125 9.39294 20.2966 19.3313 16.0171 32.9676C13.8774 39.9013 17.334 46.4883 16.511 53.6532C14.0421 74.5699 3.83738 93.8687 4.00197 115.479C4.16656 136.973 5.97696 177.998 29.1846 194.292C35.9329 199.03 45.6441 201.11 54.8613 202.959C85.6402 209.199 116.748 215.44 148.515 218.56C169.747 220.64 191.967 221.102 211.883 215.555C247.764 205.617 268.338 176.842 266.693 149.685C265.87 140.787 263.236 131.889 261.919 122.99Z" stroke="#4281A4" stroke-opacity="0.9" stroke-width="7" stroke-miterlimit="10"/>
</svg>
