<svg width="264" height="190" viewBox="0 0 264 190" fill="none" xmlns="http://www.w3.org/2000/svg">
<path d="M249.455 104.26C248.985 101.339 248.672 98.4181 248.828 95.4969C249.142 82.936 256.347 70.8619 259.01 58.4957C261.829 46.0321 259.166 31.9132 243.972 23.6366C225.959 13.8995 199.017 16.2364 175.208 15.068C155.002 14.0942 135.579 10.102 115.842 7.18085C96.1055 4.2597 75.2725 2.50702 55.6927 5.72028C38.4624 8.54405 19.509 16.918 15.4364 28.4078C13.4001 34.2501 16.6896 39.8004 15.9064 45.8374C13.5568 63.4616 3.84523 79.7227 4.00187 97.9312C4.15851 116.042 5.88142 150.609 27.9675 164.339C34.3897 168.331 43.6315 170.084 52.4033 171.641C81.6948 176.9 111.299 182.158 141.531 184.787C161.737 186.539 182.883 186.929 201.837 182.255C235.984 173.881 255.564 149.635 253.997 126.753C253.214 119.256 250.708 111.758 249.455 104.26Z" stroke="#FBC788" stroke-opacity="0.58" stroke-width="7" stroke-miterlimit="10"/>
</svg>
