<svg width="192" height="270" viewBox="0 0 192 270" fill="none" xmlns="http://www.w3.org/2000/svg">
<path d="M97.6791 149.655C98.5392 143.399 96.1379 138.032 92.5727 133.449C90.6558 131.019 88.4281 128.779 86.9742 125.919C85.4654 122.946 85.0232 119.543 84.636 116.252C83.868 109.962 84.0936 103.505 83.3255 97.2141C81.8329 85.4143 76.0579 65.0607 61.91 69.8041C60.2947 70.3495 59.4121 71.9904 59.6882 73.8057C60.7311 80.6634 52.4063 85.2316 48.5014 89.0852C43.5668 93.8612 37.7369 99.6982 34.6759 106.122C31.9193 112.067 31.9008 118.397 33.8212 124.572C35.6865 130.634 38.941 135.407 40.3127 141.696C42.7557 152.549 45.3179 160.463 55.0295 165.261C66.0162 170.75 79.5982 173.699 89.9186 164.386C93.9578 160.671 96.8857 155.357 97.6791 149.655ZM80.5895 157.885C75.6706 159.786 69.6086 158.638 64.7719 157.109C60.8074 155.855 57.1102 153.63 54.6435 150.067C52.3661 146.755 51.6246 142.872 50.8282 138.877C50.0561 134.793 48.5039 131.038 46.848 127.346C45.4427 124.31 43.8303 121.4 43.5953 117.87C43.101 110.898 48.487 106.361 52.507 101.775C56.8072 96.7989 61.2226 91.0907 64.4 85.1832C66.1895 81.8129 67.314 78.0404 66.5546 74.5364C72.5477 73.743 76.0192 82.4244 77.3347 87.3523C79.6168 95.6577 78.5265 103.377 77.5038 111.79C76.8024 118.096 76.8019 124.048 79.2646 129.818C81.6416 135.274 88.0664 139.801 88.6759 146.041C89.2663 151.412 84.8318 156.25 80.5895 157.885Z" fill="#C8686D" fill-opacity="0.9"/>
<path d="M138.519 201.1C132.495 188.539 121.481 173.441 106.988 175.675C98.9033 176.864 93.0436 183.748 90.1241 191.849C88.3663 196.67 87.2736 201.893 87.1503 207.038C87.0195 210.645 88.0654 214.048 88.8491 217.463C89.7428 221.106 89.7822 224.095 89.9686 227.802C90.3119 236.263 91.5528 246.159 96.3216 252.947C101.09 259.735 108.855 261.901 116.133 258.634C122.917 255.594 129.168 249.794 135.072 244.94C147.959 234.133 145.148 214.908 138.519 201.1ZM126.815 231.097C123.878 233.625 120.484 235.624 117.412 238.013C115.371 239.48 112.886 242.247 110.459 242.92C108.765 243.44 108.593 242.81 107.665 241.172C102.345 232.002 107.614 219.747 105.635 209.713C105.072 206.751 103.642 203.803 101.268 202.093C100.469 201.552 99.4868 201.049 99.0713 200.054C97.9281 197.004 102.729 192.09 104.77 190.623C107.872 188.435 111.646 188.189 114.813 190.15C125.301 196.825 129.608 211.243 129.443 224.056C129.544 227.448 129.289 228.999 126.815 231.097Z" fill="#F2B330" fill-opacity="0.4"/>
<path d="M175.037 131.748C175.424 123.146 173.139 114.562 169.723 106.963C167.521 102.144 165.185 97.1864 161.9 93.1755C160.096 90.9752 157.841 88.5365 155.034 88.416C153.013 88.2562 151.516 89.3169 149.563 89.8496C147.165 90.4335 144.723 90.2368 142.306 89.9518C134.659 88.9718 128.126 88.6318 120.983 92.7007C115.367 95.9103 109.687 102.168 109.06 109.448C108.374 117.572 115.114 124.976 118.894 131.253C123.461 138.737 128.028 146.221 132.619 153.617C134.546 156.623 136.363 160.649 139.239 162.709C142.778 165.171 146.582 164.168 150.301 162.851C156.514 160.598 162.77 157.878 167.422 152.542C172.33 146.903 174.654 139.393 175.037 131.748ZM158.026 143.531C155.362 146.332 149.825 149.566 145.571 150.33C143.292 147.98 141.437 143.462 139.864 141.047C137.614 137.652 135.468 134.193 133.219 130.797C130.67 126.923 128.146 122.961 125.598 119.087C124.08 116.786 120.137 112.663 120.335 109.753C120.564 107.045 124.099 104.52 125.985 103.295C131.077 100.111 138.79 99.2903 144.543 99.9591C150.796 100.69 154.283 105.532 157.211 111.155C159.839 116.301 161.902 121.939 162.322 127.919C162.838 133.548 161.894 139.481 158.026 143.531Z" fill="#FBC788" fill-opacity="0.5"/>
<path d="M133.97 45.8225C121.694 28.5193 102.691 17.5252 85.6367 6.95556C79.82 3.39062 74.2461 12.0776 78.0914 16.553C78.0671 16.6412 78.122 16.7544 78.0977 16.8426C78.5658 22.6467 80.8597 28.0696 82.6301 33.5186C84.5894 39.2192 86.5731 44.8315 88.5325 50.532C92.372 61.908 95.6153 73.5748 98.39 85.3811C99.9484 91.9135 108.148 91.822 110.133 85.5472C112.827 77.0043 118.476 70.5461 125.589 66.2761C129.105 64.1286 133.645 63.2635 135.943 59.2925C138.665 54.4014 136.701 49.6579 133.97 45.8225ZM111.753 60.2712C109.697 62.1137 107.83 64.2076 106.176 66.4649C104.246 59.7191 102.213 53.0365 99.918 46.3671C97.9586 40.6665 95.9992 34.966 93.5227 29.5813C92.8334 28.0212 92.1441 26.4611 91.3999 24.7877C103.295 31.9045 115.209 39.8901 123.712 51.2067C123.956 51.5714 124.199 51.9362 124.498 52.4141C123.33 52.9075 122.216 53.514 121.827 53.6785C118.115 55.2849 114.836 57.5075 111.753 60.2712Z" fill="#ECD8CB" fill-opacity="0.9"/>
</svg>
