<svg width="380" height="254" viewBox="0 0 380 254" fill="none" xmlns="http://www.w3.org/2000/svg">
<path d="M360.677 139.517C359.994 135.568 359.538 131.62 359.766 127.672C360.221 110.694 370.692 94.3738 374.561 77.659C378.658 60.8127 374.789 41.7289 352.71 30.5418C326.534 17.3806 287.384 20.5393 252.787 18.96C223.424 17.6439 195.2 12.2478 166.52 8.29939C137.841 4.35103 107.568 1.98201 79.1159 6.32521C54.0782 10.142 26.5365 21.4606 20.6185 36.9908C17.6595 44.8876 22.4395 52.3895 21.3015 60.5494C17.8872 84.3712 3.77511 106.35 4.00272 130.962C4.23034 155.442 6.73394 202.164 38.8278 220.721C48.16 226.117 61.5896 228.487 74.3361 230.592C116.9 237.699 159.919 244.806 203.849 248.36C233.212 250.729 263.94 251.255 291.481 244.938C341.102 233.619 369.554 200.848 367.277 169.919C366.139 159.785 362.497 149.651 360.677 139.517Z" stroke="#4281A4" stroke-opacity="0.9" stroke-width="7" stroke-miterlimit="10"/>
</svg>
