<svg width="93" height="100" viewBox="0 0 93 100" fill="none" xmlns="http://www.w3.org/2000/svg">
<path d="M92.9725 54.3875C92.521 43.3236 88.684 32.9609 83.8312 24.3124C79.2042 15.9755 73.2793 7.79447 66.1695 3.66499C58.2696 -0.854061 48.3384 -0.230743 39.9872 0.548404C25.5982 1.87295 9.45999 7.63864 2.463 26.9615C-4.81613 47.0635 5.17151 65.4514 17.642 75.5024C30.451 85.865 47.097 89.6828 59.511 76.2036C64.9281 70.2821 69.1601 60.8544 68.2008 51.0372C67.2416 41.4536 62.5017 32.8051 57.0282 27.1173C50.5955 20.4167 42.0186 15.8976 33.893 17.8455C27.0089 19.4817 20.294 26.9615 19.4476 37.0125C18.6012 46.4402 23.7925 55.7899 30.7331 56.8028C36.9965 57.6599 43.4857 51.7384 44.1628 42.934C44.1628 42.7003 43.9371 42.7003 43.8807 42.8561C41.1721 49.7126 35.078 54.4654 29.7738 50.0242C25.2032 46.2064 23.5104 38.0254 26.3882 31.7143C33.5545 16.1313 51.0469 26.7278 57.8746 37.3242C61.7681 43.3236 63.5738 52.2059 60.9781 59.7636C58.721 66.3863 54.1504 71.0612 49.1848 73.3207C37.9558 78.3852 25.2032 71.7625 16.3441 61.9452C12.2249 57.4262 8.55715 51.4267 7.59789 44.1027C6.63862 36.7787 8.61358 29.1431 12.2249 23.767C20.5197 11.4565 34.6266 9.74235 46.0249 9.74235C52.4576 9.74235 59.6803 10.2877 65.2102 15.2743C70.0065 19.5596 74.0129 26.2603 77.0035 32.883C80.107 39.5837 83.2669 47.531 83.2669 55.712C83.2669 63.3477 79.7684 69.5808 75.6492 74.2557C66.6773 84.6184 53.8683 86.7221 42.5828 87.4233C36.0937 87.8129 29.661 87.6571 23.2283 86.1767C16.9648 84.6963 10.4193 82.7484 4.77652 78.6969C2.80156 77.2944 0.600897 80.8006 2.29372 83.138C7.71074 90.3062 14.087 95.2927 21.479 97.4743C28.7017 99.578 36.2065 99.8897 43.4857 99.5001C57.4232 98.7989 73.3357 96.3056 84.0005 82.5147C89.4739 75.2686 93.3674 65.1397 92.9725 54.3875Z" fill="#4281A4" fill-opacity="0.38"/>
</svg>
