<svg width="61" height="309" viewBox="0 0 61 309" fill="none" xmlns="http://www.w3.org/2000/svg">
<path d="M60.7424 221.295C60.5424 215.644 59.5423 210.102 59.4423 204.56C59.4423 203.147 57.2423 202.604 57.0423 204.234C54.8423 218.252 50.4423 231.618 45.6423 244.767C43.8423 249.657 41.9423 254.438 40.1423 259.328C37.7423 256.829 36.5424 252.808 35.2424 249.548C34.5424 247.701 33.7423 245.853 32.9423 244.006C33.9423 243.68 34.7423 242.702 34.6423 241.615C32.7423 224.772 34.9423 208.255 38.4423 191.846C39.0423 192.172 39.6424 192.389 40.3424 192.498C43.4424 193.15 45.6423 190.868 47.1423 188.151C50.3423 182.609 51.3423 175.981 51.6423 169.569C52.1423 159.137 51.1423 148.597 49.5423 138.165C50.3423 131.536 50.1423 124.907 45.6423 119.691C43.5423 117.301 39.9423 119.8 40.6423 122.843C41.6423 126.863 42.5424 130.993 43.2424 135.122C43.0424 137.73 42.6424 140.229 42.2424 142.729C40.9424 150.879 39.2423 158.811 37.5423 166.853C36.7423 170.656 35.8423 174.568 35.1423 178.371C34.1423 174.459 34.0423 170.113 33.6423 166.201C33.0423 159.355 31.6423 152.509 30.4423 145.771C29.4423 140.121 28.2423 134.47 27.0423 128.819C27.0423 128.711 27.0423 128.493 27.0423 128.385C26.7423 123.929 27.0423 119.8 27.6423 115.345C28.2423 111.107 29.1423 106.76 30.0423 102.631C30.6423 99.8054 31.3423 96.98 32.1423 94.046C32.4423 94.046 32.6423 93.9374 32.9423 93.9374C34.8423 93.1767 36.4423 91.438 37.9423 89.9167C38.3423 89.5907 38.7423 89.156 39.1423 88.7213C39.3423 88.504 39.5423 88.2867 39.6423 87.9607C42.9423 85.244 45.5424 81.984 47.3424 77.8547C49.5424 72.7473 50.7423 67.2054 51.0423 61.6634C51.7423 48.8407 47.5423 37.1047 43.6423 25.2601C43.3423 24.3907 43.0424 23.6301 42.8424 22.7607C42.0424 15.5887 40.2423 8.63406 37.5423 1.89673C36.8423 0.158061 34.5423 -0.385273 33.1423 0.266727C31.4423 1.13606 30.8423 2.87474 31.0423 4.83074C31.8423 10.6987 33.6423 16.6754 35.5423 22.5434C36.6423 32.1061 35.9423 41.886 34.6423 51.2313C32.2423 67.7487 27.2424 83.614 24.3424 99.914C23.7424 103.5 23.2424 107.195 22.7424 110.781C22.2424 108.933 21.7424 107.195 21.2424 105.347C19.2424 98.0667 17.0423 90.8947 14.5423 83.7227C12.6423 78.1807 10.1424 72.204 4.84236 69.4874C2.14236 68.1834 -0.35769 70.3567 0.0423099 73.508C1.64231 83.7227 4.24236 93.72 7.84236 103.283C11.1424 111.976 15.0424 120.669 20.2424 128.276C22.0424 136.209 23.6423 144.25 25.0423 152.291C26.2423 159.246 27.1423 166.309 28.4423 173.373C29.3423 178.154 30.6424 183.153 33.3424 187.173C31.6424 196.41 30.3423 205.647 29.5423 214.992C28.9423 222.055 28.9423 229.119 29.4423 236.182C27.2423 231.292 25.0424 226.402 22.8424 221.621C18.0424 211.297 12.4423 201.3 6.54231 191.629C5.14231 189.347 1.44231 189.999 1.54231 193.15C1.64231 195.867 1.84236 198.583 2.34236 201.3C2.84236 203.908 3.14238 206.625 3.74238 209.341C4.94238 214.449 6.84236 219.339 9.34236 223.794C13.6424 231.401 19.8423 237.595 27.0423 241.724C28.9423 245.745 30.7423 249.874 32.5423 254.003C33.9423 257.372 35.7423 261.067 38.5423 263.349C36.0423 270.412 33.8424 277.584 32.2424 284.865C30.6424 292.58 30.1423 300.295 30.9423 308.119C31.0423 309.097 32.3424 309.097 32.3424 308.119C32.5424 294.101 36.1423 280.409 40.9423 267.478C41.2423 266.609 41.6423 265.739 41.9423 264.761C44.6423 265.196 47.3423 264.001 49.4423 261.827C55.5423 255.633 58.7424 245.962 59.8424 237.16C60.8424 231.835 60.9424 226.619 60.7424 221.295ZM56.4423 225.967C56.4423 225.533 56.5423 225.207 56.6423 224.772C56.7423 224.881 56.9423 224.989 57.1423 224.989C56.7423 225.207 56.5423 225.533 56.4423 225.967Z" fill="#49AB8B" fill-opacity="0.37"/>
</svg>
