<svg width="123" height="137" viewBox="0 0 123 137" fill="none" xmlns="http://www.w3.org/2000/svg">
<path d="M40.4088 112.644C31.4088 99.0611 25.1088 83.9565 18.6088 68.8518C17.9088 67.3305 15.4088 67.9824 15.6088 69.7211C17.4088 87.6511 25.2088 102.973 35.5088 116.774C37.7088 119.816 42.5088 115.796 40.4088 112.644Z" fill="#ECD8CB" fill-opacity="0.5"/>
<path d="M61.4086 104.495C57.4086 94.8238 53.7086 84.9351 49.9086 75.1551C48.0086 70.2651 45.8086 65.7011 43.9086 60.8111C42.0086 56.0298 40.6086 51.3571 37.5086 47.3364C33.8086 42.6637 27.9086 46.9017 27.4086 51.9004C26.9086 57.1164 28.6086 62.2238 30.0086 67.2224C31.5086 72.7645 33.1086 77.9804 35.3086 83.3051C39.4086 93.3024 44.8086 102.43 50.9086 111.124C55.5086 117.97 64.6086 112.319 61.4086 104.495Z" fill="#ECD8CB" fill-opacity="0.5"/>
<path d="M96.5087 122.642C90.3087 112.971 85.5086 102.756 80.8086 92.2155C78.7086 87.4342 76.8087 82.5442 74.9087 77.6542C73.0087 72.6555 70.3086 65.1575 66.3086 61.7888C62.7086 58.7462 58.3086 59.8328 56.6086 64.6141C54.8086 69.8302 56.4086 77.6541 57.8086 82.8702C59.6086 89.1728 62.4087 95.3668 65.2087 101.126C70.5087 112.21 78.2087 122.316 86.0087 131.553C91.0087 137.421 100.909 129.488 96.5087 122.642Z" fill="#ECD8CB" fill-opacity="0.5"/>
<path d="M58.7088 152.743C51.8088 147.636 45.4088 141.442 39.1088 135.465C33.7088 130.249 21.8088 117.318 15.6088 128.51C10.1088 138.399 22.1088 149.483 28.7088 154.482C36.4088 160.35 44.7088 163.718 53.8088 165.457C60.9088 166.761 64.9088 157.307 58.7088 152.743Z" fill="#ECD8CB" fill-opacity="0.5"/>
<path d="M87.9088 155.46C84.6088 149.157 81.2088 142.746 77.6088 136.661C74.0088 130.575 70.0088 123.838 62.9088 123.077C59.5088 122.751 56.5088 126.555 56.5088 130.032C56.5088 136.769 62.0088 141.659 66.1088 146.223C70.5088 151.113 74.4088 156.003 78.0088 161.654C82.3088 168.174 91.6088 162.523 87.9088 155.46Z" fill="#ECD8CB" fill-opacity="0.5"/>
<path d="M123.109 144.267C122.509 137.203 123.109 130.357 121.809 123.185C120.509 116.448 119.409 109.819 114.909 105.038C113.509 102.865 112.209 101.017 110.009 99.496C106.809 97.4314 103.209 98.9528 101.209 101.995C99.8087 104.169 99.4087 106.451 99.2087 108.841C96.9087 115.905 99.6087 123.077 102.209 130.031C105.009 137.421 109.809 142.093 114.509 148.07C117.209 151.656 123.509 149.048 123.109 144.267Z" fill="#ECD8CB" fill-opacity="0.5"/>
<path d="M95.4087 71.3519C94.2087 65.3753 92.9087 59.5073 91.3087 53.7479C90.0087 48.8579 87.2087 44.8373 83.6087 41.5773C81.3087 39.5126 77.7087 40.1646 76.8087 43.5332C76.4087 45.1632 76.5087 47.9886 76.4087 48.6406C75.8087 52.5526 75.3087 54.0739 76.5087 58.2032C78.2087 64.0712 80.2087 69.6133 82.3087 75.3726C85.5087 83.9573 97.4087 80.9146 95.4087 71.3519Z" fill="#ECD8CB" fill-opacity="0.5"/>
<path d="M58.8086 22.4515C58.2086 13.9755 56.5086 -4.06315 44.4086 0.826853C34.8086 4.63019 36.5086 19.9522 37.8086 28.5369C39.2086 38.0995 41.9086 47.8796 47.7086 55.2689C52.5086 61.3542 60.9086 56.0295 61.2086 49.1835C61.6086 40.3815 59.4086 31.2535 58.8086 22.4515Z" fill="#ECD8CB" fill-opacity="0.5"/>
<path d="M16.1087 105.364C11.8087 96.8882 8.80872 87.7602 4.20872 79.5015C3.10872 77.5455 -0.191291 78.1975 0.00870921 80.6968C1.00871 91.1288 5.8087 100.039 11.3087 108.407C13.4087 111.449 17.9087 108.841 16.1087 105.364Z" fill="#ECD8CB" fill-opacity="0.5"/>
<path d="M21.0086 52.1172C19.0086 43.4239 17.5086 32.6658 12.9086 25.0592C11.5086 22.7772 8.00859 23.5379 8.00859 26.4719C7.90859 35.5999 12.1086 45.4885 14.8086 53.9645C16.1086 58.3112 22.1086 56.5725 21.0086 52.1172Z" fill="#ECD8CB" fill-opacity="0.5"/>
<path d="M116.409 70.9168C114.809 65.7008 113.109 60.3762 110.209 55.8122C108.709 53.4215 104.809 53.4215 104.109 56.6815C102.609 63.6362 103.909 70.4822 106.009 77.0022C107.709 82.3268 110.309 89.7162 116.109 90.3682C118.309 90.5855 120.009 88.1948 120.109 86.0215C120.409 81.0228 117.909 75.5895 116.409 70.9168Z" fill="#ECD8CB" fill-opacity="0.5"/>
<path d="M100.709 25.277C100.209 19.735 98.5086 16.3663 95.6086 11.911C93.8086 9.19435 90.1086 9.52034 89.1086 12.7803C87.5086 17.8877 86.8087 21.7997 87.7087 27.1243C88.6087 32.3403 90.0086 36.1437 92.6086 40.599C94.3086 43.533 98.6087 43.0983 99.5087 39.621C100.809 34.731 101.209 30.6017 100.709 25.277Z" fill="#ECD8CB" fill-opacity="0.5"/>
</svg>
