<svg width="76" height="195" viewBox="0 0 76 195" fill="none" xmlns="http://www.w3.org/2000/svg">
<path d="M77.3562 93.8438C78.9463 93.057 80.1296 91.959 80.798 90.1245C81.4643 88.1831 81.4251 86.0446 80.3913 84.3577C79.7702 83.3028 78.8484 82.2551 77.8342 81.6375C75.5798 79.017 71.7529 78.1456 68.7829 80.2491C68.091 80.8005 67.3992 81.3519 66.9117 82.1123C66.4163 82.4451 66.0252 82.9893 65.7323 83.4242C65.5377 83.7497 65.4434 84.0729 65.349 84.3961C64.6689 85.589 64.1952 87.098 64.3229 88.5925C64.4879 92.1187 67.2553 95.3688 70.4767 96.0407C72.9926 96.5154 75.5852 95.7047 77.3562 93.8438Z" fill="#4281A4" fill-opacity="0.38"/>
<path d="M67.4374 118.92C68.2061 117.083 68.5737 115.255 68.2357 113.23C68.0096 111.845 67.6873 110.676 66.9639 109.516C65.3089 106.774 62.3681 105.026 59.2623 105.207C58.761 105.219 58.3619 105.335 57.9629 105.452C57.6621 105.459 57.3633 105.573 57.0645 105.687C56.0659 105.925 55.0752 106.591 54.2869 107.358C53.3983 108.129 52.612 109.003 52.0301 110.087C51.2516 111.389 50.8801 113.003 51.0098 114.605C51.0196 115.139 51.1277 115.565 51.2377 116.097C51.3458 116.522 51.3537 116.95 51.4618 117.376C51.8922 118.97 52.822 120.446 53.9464 121.596C55.0708 122.746 56.49 123.568 58.0017 123.959C61.5223 124.517 65.8981 122.487 67.4374 118.92Z" fill="#4281A4" fill-opacity="0.38"/>
<path d="M47.8453 91.291C52.8558 90.9573 56.2932 86.9157 56.4979 81.6671C56.5648 79.8462 56.6297 77.9184 56.7969 76.0952C56.9543 73.7371 55.8079 71.4101 54.1719 69.737C54.0638 69.3115 53.8573 68.9954 53.5486 68.5747C52.4121 66.7826 50.8823 65.428 48.8667 64.941C46.9514 64.4517 44.6507 64.8277 42.9655 65.9381C40.885 67.379 39.8191 69.4377 39.4611 71.8006C39.2645 72.0193 39.0698 72.345 38.9735 72.5613C36.5389 76.579 37.0363 81.8109 39.7085 85.2786C40.1332 86.5526 40.7565 87.7149 41.779 88.7606C43.1103 90.227 45.641 91.4507 47.8453 91.291Z" fill="#4281A4" fill-opacity="0.38"/>
<path d="M27.2564 129.234C29.7508 128.532 32.0309 127.087 33.8982 125.01C36.8467 121.73 38.8636 116.868 38.7811 112.377C38.7144 108.742 37.5528 105.56 35.8016 103.035C33.9442 100.191 31.2947 97.9007 27.8687 97.0198C26.9625 96.8275 26.0564 96.6352 25.1522 96.5498C22.7385 96.1795 20.1361 96.4556 17.6476 97.4778C9.68101 100.556 2.92307 109.383 6.00679 118.937C9.0905 128.491 18.706 133.289 27.2564 129.234Z" fill="#4281A4" fill-opacity="0.38"/>
<path d="M51.8456 152.053C52.2446 151.936 52.6437 151.82 53.0427 151.703C57.9393 150.73 60.7289 144.245 58.036 139.602C57.2065 138.124 56.1785 136.758 55.0522 135.501C54.7436 135.08 54.3347 134.662 53.9278 134.351C52.9076 133.412 51.6869 132.478 50.3797 132.296C49.5738 132.101 48.7718 132.12 47.9678 132.032C46.8631 131.952 45.3691 132.522 44.4786 133.186C43.1911 134.072 42.2121 135.379 41.6381 136.891C41.4493 137.537 41.2606 138.184 41.1702 138.721C40.9775 139.153 40.6846 139.588 40.5922 140.018C39.9238 141.853 39.6623 143.999 40.2991 145.909C41.0401 148.031 42.2844 150.248 44.309 151.27C45.1189 151.678 46.029 152.085 46.9372 152.384C48.7476 152.661 50.0469 152.416 51.8456 152.053Z" fill="#4281A4" fill-opacity="0.38"/>
<path d="M23.3924 74.6979C23.4927 74.6955 23.4907 74.5886 23.5909 74.5862L23.6912 74.5838C25.4875 74.113 27.0735 73.1126 27.84 71.169C28.4237 70.1925 28.7029 69.0093 28.6813 67.8333C28.5065 63.7732 25.2422 60.7494 21.5337 60.838C19.1281 60.8955 16.9427 62.0172 15.2682 63.6616C14.7768 64.2081 14.3857 64.7522 14.0968 65.4008C13.9985 65.5101 13.9985 65.5101 13.9003 65.6194C13.1161 66.6008 12.6345 67.6818 12.4576 68.9695C12.1077 71.7587 13.8627 74.4977 16.4824 75.1838C17.1879 75.3808 17.9917 75.4686 18.7955 75.5564C20.2047 75.8436 21.9047 75.5891 23.3924 74.6979Z" fill="#4281A4" fill-opacity="0.38"/>
<path d="M74.3331 52.4507C76.5404 52.505 78.5295 51.6017 80.0056 50.0689C80.9962 49.4034 81.8827 48.5265 82.5608 47.2267C83.4316 45.4944 83.7854 42.9186 83.2489 41.006C83.0386 40.4762 82.8283 39.9464 82.62 39.5235C82.0854 37.7178 81.0556 36.2448 79.5284 34.9977C78.6106 34.1639 77.5984 33.6532 76.3896 33.3612C75.5837 33.1665 74.7799 33.0787 73.9779 33.0979C73.2763 33.1146 72.5765 33.2383 71.8788 33.4689L71.7786 33.4713C69.6794 33.8423 67.5842 34.4272 66.1139 36.2808C64.8383 37.8089 64.0697 39.6457 63.8063 41.6844C63.2892 46.2964 65.9759 50.618 70.3098 51.7981C70.9152 51.9976 71.5186 52.0901 72.0198 52.0781C72.6251 52.2776 73.3288 52.3678 74.0304 52.351C74.0324 52.4579 74.2329 52.4531 74.3331 52.4507Z" fill="#4281A4" fill-opacity="0.38"/>
<path d="M43.174 46.294C43.3726 46.1822 43.4728 46.1798 43.6714 46.0681C45.6529 44.7369 47.4085 42.0203 47.0606 39.4609L47.0586 39.3539C46.8248 37.5407 46.4965 36.0507 45.3682 34.6868C44.2379 33.216 43.1233 32.6007 41.5074 31.9973C39.6891 31.2919 37.3911 31.7747 35.7005 32.564C33.8113 33.465 32.4293 34.6749 31.3599 36.5193C29.7065 39.3405 29.5669 42.6604 30.4258 45.7426C31.0725 48.1879 32.9144 50.1766 35.2321 50.7632C38.5523 51.3258 41.8293 49.5357 43.174 46.294Z" fill="#4281A4" fill-opacity="0.38"/>
<path d="M84.5961 167.28C85.8935 166.928 86.9844 166.26 87.869 165.276C88.958 164.502 89.7424 163.52 90.3203 162.222C91.0005 161.029 91.3779 159.737 91.4507 158.237C91.7259 156.84 91.6002 155.452 91.1737 154.071C90.6391 152.266 89.8096 150.788 88.583 149.533C87.0538 148.179 85.9353 147.35 83.9186 146.756C80.3922 145.877 76.8028 147.033 74.2454 149.769C73.2605 150.755 72.6787 151.839 72.3012 153.132C71.7233 154.429 71.4461 155.719 71.5738 157.214C71.6917 158.174 71.8077 159.027 71.9256 159.987C72.2518 161.37 72.8749 162.532 73.6946 163.475C74.1093 164.214 74.7226 164.842 75.5344 165.357C76.4523 166.191 77.5669 166.806 78.876 167.096C79.0785 167.198 79.1787 167.196 79.3812 167.298C81.0972 167.899 82.9017 167.856 84.5961 167.28Z" fill="#4281A4" fill-opacity="0.38"/>
<path d="M87.0167 127.269C87.4177 127.259 87.7164 127.145 88.1174 127.135C88.6167 127.016 89.1139 126.791 89.511 126.567C89.6112 126.565 89.8117 126.56 89.91 126.451C91.506 125.985 92.8898 124.882 93.8667 123.468C94.3581 122.921 94.649 122.379 94.8358 121.626C95.1247 120.977 95.3134 120.331 95.2997 119.583C95.4864 118.829 95.4727 118.081 95.2605 117.444C95.2408 116.375 94.9205 115.313 94.3014 114.365C94.095 114.049 93.8886 113.733 93.6822 113.417C93.2695 112.785 92.7565 112.155 92.2455 111.633C91.4279 110.796 90.7183 110.386 90.0088 109.975C90.0088 109.975 90.0088 109.975 90.109 109.972C90.0088 109.975 90.0068 109.868 89.9066 109.87C89.199 109.566 88.4914 109.262 87.7838 108.958C86.5731 108.559 85.4704 108.585 84.2714 108.828C83.4695 108.847 82.7717 109.078 82.0779 109.522C80.983 109.976 80.0926 110.639 79.3064 111.514C78.127 112.826 77.3526 114.342 76.8847 116.172C76.0395 119.294 77.1066 122.798 79.2529 124.994C80.3772 126.143 81.5938 126.863 83.1053 127.255C84.3141 127.547 85.6192 127.623 87.0167 127.269Z" fill="#4281A4" fill-opacity="0.38"/>
<path d="M25.4174 167.74C26.2115 167.293 26.8031 166.744 27.2925 166.09C28.6644 164.346 29.5332 162.507 29.7908 160.148C30.2154 155.966 28.1302 151.63 24.5866 149.789C21.8331 147.288 18.2973 145.875 14.5885 145.964C11.8821 146.028 8.99874 147.381 7.13151 149.458C6.44358 150.223 5.85982 151.199 5.37629 152.174C4.89081 153.041 4.50947 154.12 4.22642 155.089C3.29861 159.176 4.47776 163.319 7.23911 166.249C9.48947 168.655 12.4121 169.441 15.3346 170.227C18.7663 171.428 22.7581 170.37 25.4174 167.74Z" fill="#4281A4" fill-opacity="0.38"/>
<path d="M67.2148 20.9979C68.3056 20.3301 69.1921 19.4532 69.8722 18.2603C70.6564 17.2788 71.2362 16.0884 71.5115 14.6912C71.596 13.8335 71.6786 12.8688 71.7631 12.0111C71.7298 10.1934 71.2974 8.49231 70.3658 6.91006C70.3639 6.80314 70.3639 6.80313 70.2617 6.6986C69.7467 5.96214 69.2338 5.33259 68.7188 4.59613C68.0074 4.07829 67.3961 3.55806 66.6847 3.04022C65.8769 2.73861 65.0671 2.33009 64.3596 2.02609C63.253 1.83859 62.0462 1.65349 60.9436 1.67983C60.6429 1.68701 60.3422 1.6942 60.0415 1.70138C59.5403 1.71335 58.9408 1.83462 58.4416 1.95351C57.5394 1.97506 56.7415 2.20807 56.0496 2.75942C55.6526 2.98284 55.1553 3.20866 54.7583 3.43208C53.3706 4.32095 52.1913 5.63272 51.4169 7.14875C51.0316 8.01368 50.6464 8.87861 50.4616 9.73876L50.4636 9.84568C50.2749 10.492 50.2886 11.2404 50.2001 11.8843C50.2021 11.9913 50.206 12.2051 50.1078 12.3144C50.2237 13.1674 50.3396 14.0203 50.4556 14.8733C50.5578 14.9778 50.5617 15.1917 50.6639 15.2962C50.8742 15.826 51.0845 16.3558 51.2928 16.7787C51.2947 16.8856 51.397 16.9901 51.3989 17.097C51.6072 17.5199 51.9138 17.8335 52.1222 18.2564C52.2244 18.3609 52.2263 18.4679 52.3266 18.4655C52.3285 18.5724 52.4288 18.57 52.4307 18.6769C53.663 20.252 55.2884 21.3898 57.2008 21.772C57.7039 21.8669 58.2071 21.9619 58.8105 22.0544C58.9107 22.052 59.1132 22.1542 59.2134 22.1518C62.0358 22.9401 64.9368 22.5499 67.2148 20.9979Z" fill="#4281A4" fill-opacity="0.38"/>
<path d="M58.7497 192.711C60.6448 192.131 62.4278 190.912 63.8058 189.488C65.9722 187.296 66.9139 183.957 66.9573 180.854C66.9908 177.215 65.5205 173.613 63.0653 170.997C61.6342 169.533 59.5014 168.086 57.5867 167.597C55.1688 167.013 53.0673 167.277 50.7713 167.867C48.4752 168.456 45.8095 170.767 44.7479 173.039C44.4628 173.902 44.0775 174.767 43.7924 175.63C43.4189 177.136 43.3441 178.529 43.6724 180.019C43.7903 180.979 44.1087 181.934 44.4272 182.89C44.5569 184.491 44.9893 186.193 45.8168 187.564C46.1274 188.091 46.5383 188.616 46.9491 189.142C47.0513 189.246 47.0533 189.353 47.1535 189.351C47.3599 189.667 47.6646 189.873 47.871 190.189C47.7688 190.085 47.7669 189.978 47.6666 189.98C48.9974 191.446 50.7233 192.582 52.7363 192.962C54.8515 193.446 56.4556 193.408 58.7497 192.711Z" fill="#4281A4" fill-opacity="0.38"/>
</svg>
