<svg width="1430" height="638" viewBox="0 0 1430 638" fill="none" xmlns="http://www.w3.org/2000/svg">
<path d="M0.965945 561.723C65.4499 567.036 59.1594 678.684 81.1184 620.27C98.6855 573.538 55.3574 424.673 40.0897 424.499L29.8082 425.429L21.8099 429.222L15.5465 435.344L12.7105 442.434L14.897 455.353L25.525 467.535L89.8209 483.947C113.501 491.429 165.782 495.231 185.469 450.585C211.264 392.863 257.569 381.302 285.331 384.418C322.835 393.845 292.452 479.648 355.976 442.309C419.501 404.969 409.793 390.437 432.547 354.254L439.073 319.759L433.308 303.233L422.68 291.052C354.844 244.538 274.924 440.038 414.593 503.954C554.261 567.87 647.36 393.195 648.785 335.764C655.815 286.088 653.425 212.069 752.987 222.183C877.439 234.825 844.012 363.442 940.357 275.551C1036.7 187.66 994.284 72.6988 1099.25 150.838C1204.21 228.977 1148.16 372.546 1228.83 259.669C1293.37 169.367 1273.61 151.951 1250 134.146C1196.11 96.0105 1077.62 133.049 1180.25 191.876C1282.89 250.702 1420.48 88.6635 1476.45 0.291036" stroke="#49AB8B" stroke-opacity="0.37"/>
</svg>
