<svg width="289" height="205" viewBox="0 0 289 205" fill="none" xmlns="http://www.w3.org/2000/svg">
<path d="M287.722 52.4417C285.619 40.4666 280.011 28.9192 271.879 18.441C267.253 12.4535 261.505 6.78675 252.952 3.79298C243.559 0.478458 233.745 0.58538 223.65 0.47846C201.639 0.47846 179.487 0.478461 157.476 0.692301C135.044 0.906141 112.191 -1.87378 90.1795 2.40302C69.1494 6.46599 45.4554 7.00059 37.3237 25.3909C34.2393 32.4476 33.1177 40.1458 31.0147 47.4164C26.8087 61.7437 21.3409 75.6433 14.1906 89.3291C6.76 103.656 -0.530399 118.304 0.030404 134.022C0.591206 152.091 11.1063 167.915 29.3324 179.356C51.6243 193.469 70.972 200.847 100.134 201.275C145.138 202.023 188.74 199.992 233.605 204.482C244.54 205.551 253.794 197.853 257.018 190.903C269.075 164.708 262.346 139.047 269.917 112.958C276.506 91.4675 291.788 75.7503 287.722 52.4417Z" fill="#FBC788" fill-opacity="0.25"/>
</svg>
