<svg width="313" height="205" viewBox="0 0 313 205" fill="none" xmlns="http://www.w3.org/2000/svg">
<path d="M311.699 52.4417C309.421 40.4666 303.345 28.9192 294.536 18.441C289.524 12.4535 283.297 6.78675 274.032 3.79298C263.855 0.478458 253.224 0.58538 242.288 0.47846C218.442 0.47846 194.445 0.478461 170.599 0.692301C146.297 0.906141 121.54 -1.87378 97.6944 2.40302C74.9118 6.46599 49.2433 7.00059 40.434 25.3909C37.0926 32.4476 35.8775 40.1458 33.5993 47.4164C29.0427 61.7437 23.1193 75.6433 15.3732 89.3291C7.32333 103.656 -0.574598 118.304 0.0329376 134.022C0.640474 152.091 12.0318 167.915 31.7767 179.356C55.9263 193.469 76.8863 200.847 108.478 201.275C157.233 202.023 204.469 199.992 253.072 204.482C264.919 205.551 274.943 197.853 278.436 190.903C291.498 164.708 284.208 139.047 292.41 112.958C299.548 91.4675 316.104 75.7503 311.699 52.4417Z" fill="#4281A4" fill-opacity="0.25"/>
</svg>
