<svg width="279" height="205" viewBox="0 0 279 205" fill="none" xmlns="http://www.w3.org/2000/svg">
<path d="M277.732 52.4417C275.702 40.4666 270.289 28.9192 262.439 18.441C257.973 12.4535 252.425 6.78675 244.169 3.79298C235.102 0.478458 225.629 0.58538 215.885 0.47846C194.638 0.47846 173.255 0.478461 152.008 0.692301C130.355 0.906141 108.295 -1.87378 87.0483 2.40302C66.7484 6.46599 43.8771 7.00059 36.0278 25.3909C33.0505 32.4476 31.9678 40.1458 29.9378 47.4164C25.8778 61.7437 20.5999 75.6433 13.6979 89.3291C6.52528 103.656 -0.511982 118.304 0.0293483 134.022C0.570679 152.091 10.7207 167.915 28.3139 179.356C49.8318 193.469 68.5077 200.847 96.6569 201.275C140.099 202.023 182.187 199.992 225.493 204.482C236.049 205.551 244.981 197.853 248.094 190.903C259.733 164.708 253.237 139.047 260.545 112.958C266.905 91.4675 281.657 75.7503 277.732 52.4417Z" fill="#C8686D" fill-opacity="0.22"/>
</svg>
