<svg width="193" height="126" viewBox="0 0 193 126" fill="none" xmlns="http://www.w3.org/2000/svg">
<path d="M185.513 73.1141C185.179 71.2324 184.957 69.3507 185.068 67.4689C185.29 59.3775 190.406 51.5996 192.297 43.6336C194.299 35.6049 192.408 26.5099 181.62 21.1783C168.831 14.9058 149.702 16.4112 132.797 15.6585C118.451 15.0313 104.66 12.4596 90.6472 10.5778C76.6342 8.6961 61.8426 7.56706 47.9408 9.63697C35.7073 11.456 22.2502 16.8503 19.3587 24.2518C17.9129 28.0152 20.2484 31.5905 19.6924 35.4795C18.0241 46.8326 11.1289 57.3076 11.2401 69.037C11.3513 80.7038 12.5746 102.971 28.2558 111.815C32.8156 114.387 39.3774 115.516 45.6054 116.519C66.4025 119.907 87.4219 123.294 108.886 124.987C123.233 126.116 138.247 126.367 151.704 123.356C175.948 117.962 189.85 102.344 188.738 87.6035C188.182 82.7737 186.403 77.9439 185.513 73.1141Z" fill="#FBC788" fill-opacity="0.37"/>
<path d="M176.274 66.5853C175.941 64.7036 175.718 62.8219 175.829 60.9401C176.052 52.8487 181.168 45.0708 183.058 37.1048C185.06 29.0761 183.17 19.981 172.382 14.6495C159.592 8.37701 140.463 9.88241 123.559 9.12971C109.212 8.50247 95.4214 5.93076 81.4084 4.04903C67.3954 2.1673 52.6039 1.03826 38.7021 3.10816C26.4685 4.92717 13.0115 10.3215 10.1199 17.723C8.67411 21.4864 11.0097 25.0617 10.4536 28.9506C8.78538 40.3038 1.89012 50.7788 2.00133 62.5082C2.11254 74.175 3.33582 96.4421 19.017 105.286C23.5768 107.858 30.1386 108.987 36.3666 109.991C57.1637 113.378 78.1831 116.765 99.6475 118.458C113.994 119.587 129.008 119.838 142.465 116.828C166.71 111.433 180.612 95.8149 179.499 81.0747C178.943 76.2449 177.164 71.4151 176.274 66.5853Z" stroke="#4281A4" stroke-opacity="0.9" stroke-width="3" stroke-miterlimit="10"/>
</svg>
