<svg width="1440" height="280" viewBox="0 0 1440 280" fill="none" xmlns="http://www.w3.org/2000/svg">
<path d="M0 133.385C54 159.639 15 262.987 51.5 215.063C80.7 176.725 86.5 23.3696 75 16.702L67 15.8686L59 16.702L51.5 19.6191L46 24.6198L44 37.5383L49.5 52.5405L100 89.2123C118.167 104.075 162.1 124.884 192.5 89.2123C232.1 43.2057 275.5 47.5398 298.5 59.6248C328 80.8778 276 151.888 342 137.552C408 123.217 404 106.298 434.5 79.6276L450.5 49.2066V31.7041L445 16.702C400.5 -49.5574 272.8 108.715 374 215.063C475.2 321.412 608 187.143 626.5 133.385C647.5 88.7956 667.7 18.1189 750.5 60.4582C854 113.382 786.5 223.815 896 172.557C1005.5 121.3 1003.5 -1.21723 1070.5 107.131C1137.5 215.48 1046 332.58 1149.5 252.569C1232.3 188.56 1220.5 165.607 1205.5 141.02C1170.5 87.2622 1057.2 83.2114 1128 172.557C1198.8 261.903 1366.17 154.221 1441 89.2123" stroke="#49AB8B" stroke-opacity="0.37"/>
</svg>
