<svg width="286" height="204" viewBox="0 0 286 204" fill="none" xmlns="http://www.w3.org/2000/svg">
<path d="M129.532 191.853C133.993 191.476 138.454 191.22 142.916 191.324C162.103 191.495 180.565 196.956 199.461 198.93C218.506 201.024 240.064 198.904 252.664 187.202C267.487 173.329 263.843 152.674 265.562 134.402C266.993 118.896 273.037 103.973 277.444 88.8166C281.851 73.6597 284.471 57.6681 279.508 42.6653C275.147 29.4627 262.304 14.9689 244.743 11.908C235.814 10.3781 227.345 12.9323 218.122 12.3648C191.196 10.6595 166.331 3.29908 138.519 3.51972C110.856 3.73981 58.0623 5.25226 37.1528 22.2712C31.0728 27.22 28.4213 34.3195 26.0659 41.0573C18.1158 63.5571 10.1665 86.2972 6.23457 109.503C3.61345 125.014 3.07715 141.239 10.2686 155.753C23.1539 181.903 60.2416 196.789 95.1884 195.462C106.638 194.819 118.083 192.855 129.532 191.853Z" stroke="#C8686D" stroke-opacity="0.71" stroke-width="7" stroke-miterlimit="10"/>
</svg>
