<svg width="289" height="176" viewBox="0 0 289 176" fill="none" xmlns="http://www.w3.org/2000/svg">
<path d="M130.514 165.605C135.013 165.278 139.512 165.055 144.013 165.142C163.365 165.279 181.984 169.969 201.041 171.658C220.25 173.45 241.995 171.614 254.709 161.537C269.668 149.59 266.003 131.816 267.746 116.091C269.198 102.746 275.302 89.9008 279.756 76.8547C284.209 63.8086 286.859 50.0451 281.862 37.1366C277.471 25.777 264.525 13.3108 246.814 10.686C237.808 9.37419 229.266 11.5768 219.963 11.0933C192.806 9.64022 167.731 3.31924 139.679 3.52399C111.777 3.72819 58.5276 5.05801 37.4288 19.7154C31.2936 23.9775 28.6155 30.0886 26.2362 35.8883C18.2055 55.2555 10.1755 74.8295 6.19733 94.8025C3.54532 108.152 2.99572 122.115 10.2414 134.602C23.2238 157.099 60.6232 169.89 95.872 168.729C107.421 168.17 118.966 166.474 130.514 165.605Z" stroke="#49AB8B" stroke-width="7" stroke-miterlimit="10"/>
</svg>
