<svg width="104" height="223" viewBox="0 0 104 223" fill="none" xmlns="http://www.w3.org/2000/svg">
<path d="M76.6951 107.059C78.2796 106.16 79.4568 104.901 80.1171 102.791C80.775 100.557 80.7277 98.0942 79.6891 96.1468C79.0651 94.9291 78.1408 93.7184 77.126 93.0026C74.8653 89.9745 71.0415 88.9542 68.0844 91.3638C67.3957 91.9959 66.7071 92.6279 66.2233 93.5016C65.73 93.8827 65.3416 94.5078 65.0508 95.0074C64.8578 95.3815 64.7648 95.7533 64.6719 96.1251C63.9974 97.4961 63.5302 99.232 63.6633 100.954C63.8415 105.016 66.6166 108.771 69.8353 109.559C72.3489 110.117 74.9341 109.195 76.6951 107.059Z" fill="#FBC788"/>
<path d="M66.8731 135.89C67.6335 133.777 67.9936 131.674 67.6485 129.341C67.4176 127.744 67.0913 126.396 66.3648 125.058C64.7021 121.892 61.7597 119.866 58.6598 120.061C58.1594 120.072 57.7615 120.205 57.3635 120.337C57.0633 120.344 56.7654 120.474 56.4676 120.604C55.4716 120.874 54.485 121.636 53.701 122.517C52.8168 123.4 52.0352 124.404 51.4584 125.649C50.6862 127.146 50.3213 129.003 50.4569 130.848C50.4687 131.464 50.5783 131.954 50.6902 132.568C50.7997 133.058 50.8092 133.551 50.9187 134.041C51.3545 135.88 52.2883 137.583 53.4151 138.913C54.5419 140.242 55.9619 141.195 57.4725 141.653C60.9893 142.311 65.35 139.992 66.8731 135.89Z" fill="#FBC788"/>
<path d="M47.218 104.006C52.2183 103.644 55.6342 99.0042 55.8186 92.9607C55.8785 90.864 55.936 88.6442 56.096 86.5452C56.2441 83.8303 55.091 81.1455 53.4515 79.2115C53.342 78.721 53.1347 78.3561 52.8249 77.8702C51.6836 75.8014 50.1513 74.2347 48.1375 73.6651C46.2238 73.0932 43.9286 73.5161 42.2506 74.7875C40.1792 76.4377 39.1231 78.804 38.7747 81.5235C38.5793 81.7746 38.3861 82.1488 38.2908 82.3975C35.8758 87.0137 36.3921 93.041 39.0728 97.0461C39.5016 98.5152 40.1282 99.8564 41.1529 101.065C42.4873 102.76 45.0182 104.18 47.218 104.006Z" fill="#FBC788"/>
<path d="M26.7857 147.614C29.2732 146.817 31.5441 145.162 33.4004 142.778C36.3316 139.014 38.3266 133.423 38.2273 128.25C38.1468 124.062 36.9751 120.393 35.2172 117.476C33.3521 114.193 30.6982 111.543 27.2746 110.514C26.3693 110.288 25.4639 110.063 24.5609 109.96C22.1498 109.523 19.5527 109.83 17.0723 110.996C9.13058 114.507 2.41737 124.644 5.53224 135.661C8.64711 146.679 18.2649 152.247 26.7857 147.614Z" fill="#FBC788"/>
<path d="M51.4198 173.973C51.8178 173.841 52.2157 173.709 52.6136 173.576C57.4983 172.477 60.2585 165.02 57.5525 159.661C56.7188 157.955 55.6874 156.377 54.5582 154.924C54.2485 154.439 53.8387 153.955 53.4313 153.595C52.4093 152.51 51.1871 151.429 49.8815 151.213C49.0761 150.985 48.2756 151.003 47.4726 150.899C46.3694 150.801 44.8801 151.452 43.9937 152.212C42.7116 153.227 41.7393 154.728 41.172 156.467C40.986 157.21 40.8001 157.954 40.7118 158.572C40.5211 159.069 40.2304 159.569 40.1397 160.064C39.4794 162.174 39.2265 164.644 39.8695 166.848C40.6174 169.295 41.8679 171.854 43.893 173.039C44.7031 173.513 45.6132 173.985 46.521 174.333C48.3294 174.661 49.6256 174.385 51.4198 173.973Z" fill="#FBC788"/>
<path d="M22.737 84.8088C22.8371 84.8065 22.8347 84.6833 22.9348 84.681L23.0348 84.6787C24.8264 84.1443 26.4061 82.9989 27.164 80.7637C27.7431 79.6414 28.0172 78.2799 27.9912 76.9253C27.8013 72.2479 24.5308 68.7508 20.8286 68.8366C18.4272 68.8922 16.2496 70.1747 14.584 72.0614C14.0956 72.6887 13.7071 73.3137 13.4211 74.0595C13.3235 74.185 13.3235 74.185 13.2258 74.3105C12.4466 75.4373 11.9699 76.6804 11.7982 78.1628C11.4594 81.374 13.2219 84.5364 15.84 85.3382C16.5452 85.5682 17.348 85.6729 18.1508 85.7775C19.5588 86.1145 21.255 85.8287 22.737 84.8088Z" fill="#FBC788"/>
<path d="M73.5365 59.393C75.7403 59.4651 77.7227 58.4335 79.1906 56.6745C80.177 55.9124 81.0587 54.9062 81.7308 53.4121C82.5936 51.4207 82.9371 48.4556 82.3942 46.2503C82.1822 45.6392 81.9702 45.028 81.7606 44.54C81.2201 42.4579 80.1863 40.7569 78.657 39.3138C77.7375 38.3494 76.725 37.7568 75.5171 37.4151C74.7118 37.1873 73.9089 37.0827 73.1084 37.1013C72.408 37.1175 71.7099 37.2569 71.0141 37.5194L70.9141 37.5218C68.8198 37.9399 66.7302 38.6044 65.2694 40.7329C64.0017 42.4872 63.2414 44.5995 62.9861 46.9464C62.4874 52.2562 65.1861 57.2454 69.5173 58.6236C70.1224 58.856 70.7252 58.9653 71.2255 58.9537C71.8306 59.1861 72.5335 59.293 73.2339 59.2768C73.2363 59.3999 73.4364 59.3953 73.5365 59.393Z" fill="#FBC788"/>
<path d="M42.3936 52.1847C42.5914 52.0569 42.6915 52.0546 42.8893 51.9268C44.8624 50.4023 46.6047 47.2812 46.2477 44.332L46.2453 44.2088C46.005 42.1194 45.6716 40.402 44.54 38.8262C43.4061 37.1273 42.291 36.4137 40.6756 35.7118C38.8576 34.8913 36.5653 35.4373 34.8806 36.3389C32.998 37.3684 31.6229 38.7558 30.5623 40.8753C28.9225 44.1172 28.7957 47.9403 29.6649 51.4938C30.3197 54.3129 32.1661 56.6114 34.482 57.2972C37.7988 57.9597 41.0635 55.9124 42.3936 52.1847Z" fill="#FBC788"/>
<path d="M84.1796 191.632C85.4735 191.232 86.5601 190.468 87.4395 189.338C88.5237 188.451 89.303 187.323 89.875 185.832C90.5495 184.46 90.9214 182.973 90.9884 181.247C91.2579 179.638 91.127 178.04 90.696 176.448C90.1554 174.365 89.3217 172.66 88.0925 171.209C86.5607 169.643 85.4409 168.683 83.4253 167.99C79.9015 166.963 76.3225 168.278 73.7798 171.418C72.8003 172.549 72.2235 173.795 71.8516 175.282C71.2796 176.774 71.0077 178.259 71.1409 179.981C71.2623 181.087 71.3813 182.07 71.5026 183.177C71.8336 184.771 72.4601 186.112 73.2819 187.202C73.6988 188.055 74.3134 188.78 75.1258 189.377C76.0454 190.342 77.1604 191.055 78.4684 191.395C78.6709 191.513 78.771 191.511 78.9735 191.629C80.6889 192.329 82.4902 192.287 84.1796 191.632Z" fill="#FBC788"/>
<path d="M86.4598 145.576C86.8601 145.567 87.1579 145.437 87.5582 145.427C88.0561 145.293 88.5517 145.035 88.9473 144.779C89.0473 144.777 89.2475 144.772 89.3452 144.647C90.9368 144.117 92.3141 142.853 93.284 141.229C93.7725 140.601 94.0609 139.979 94.2445 139.112C94.5305 138.366 94.7164 137.622 94.6999 136.76C94.8835 135.893 94.8669 135.031 94.6526 134.297C94.6289 133.065 94.3051 131.841 93.6834 130.746C93.4762 130.381 93.2689 130.016 93.0617 129.651C92.6472 128.922 92.1327 128.194 91.6206 127.59C90.8011 126.624 90.0912 126.147 89.3812 125.671C89.3812 125.671 89.3812 125.671 89.4813 125.668C89.3812 125.671 89.3789 125.548 89.2788 125.55C88.5712 125.197 87.8637 124.843 87.1561 124.49C85.9458 124.025 84.8451 124.051 83.649 124.325C82.8485 124.343 82.1528 124.606 81.4617 125.115C80.3705 125.633 79.4841 126.393 78.7024 127.397C77.53 128.902 76.7626 130.645 76.3025 132.751C75.4704 136.343 76.5492 140.384 78.7002 142.922C79.827 144.251 81.0443 145.086 82.5548 145.543C83.7627 145.885 85.066 145.978 86.4598 145.576Z" fill="#FBC788"/>
<path d="M25.0779 191.936C25.869 191.424 26.4575 190.795 26.9437 190.044C28.3067 188.041 29.1671 185.927 29.4152 183.21C29.8233 178.396 27.7251 173.393 24.1803 171.257C21.4218 168.364 17.8865 166.721 14.1841 166.807C11.4824 166.869 8.60892 168.414 6.75264 170.798C6.06875 171.677 5.48966 172.799 5.01062 173.919C4.52922 174.916 4.15261 176.157 3.87371 177.272C2.96294 181.975 4.15587 186.753 6.92381 190.138C9.17961 192.92 12.1004 193.838 15.0211 194.756C18.4517 196.155 22.433 194.954 25.0779 191.936Z" fill="#FBC788"/>
<path d="M66.3168 23.1587C67.4033 22.3942 68.285 21.3881 68.9594 20.0172C69.7387 18.8902 70.313 17.5216 70.5825 15.9136C70.6637 14.9261 70.7425 13.8153 70.8236 12.8278C70.7834 10.7341 70.3454 8.77288 69.4093 6.94638C69.4069 6.82322 69.407 6.82321 69.3045 6.70237C68.7877 5.85185 68.2731 5.1245 67.7563 4.27398C67.044 3.67442 66.4318 3.07253 65.7195 2.47297C64.9119 2.12203 64.1019 1.64794 63.3944 1.29469C62.289 1.07386 61.0835 0.855355 59.9828 0.880841C59.6826 0.887791 59.3824 0.894742 59.0822 0.901692C58.5819 0.913277 57.9838 1.05031 57.4859 1.18505C56.5853 1.2059 55.7895 1.47077 55.1009 2.10277C54.7053 2.35835 54.2097 2.61626 53.8142 2.87184C52.4322 3.88953 51.2598 5.39521 50.4924 7.13794C50.111 8.13246 49.7297 9.12697 49.5485 10.1169L49.5508 10.24C49.3649 10.9836 49.3814 11.8457 49.2955 12.5869C49.2979 12.7101 49.3026 12.9564 49.2049 13.0819C49.3239 14.0648 49.4429 15.0478 49.5619 16.0307C49.6643 16.1516 49.669 16.3979 49.7714 16.5187C49.9834 17.1299 50.1953 17.741 50.4049 18.229C50.4073 18.3522 50.5097 18.473 50.5121 18.5961C50.7217 19.0841 51.0289 19.4467 51.2385 19.9347C51.341 20.0555 51.3433 20.1787 51.4434 20.1764C51.4458 20.2995 51.5458 20.2972 51.5482 20.4203C52.7844 22.2399 54.4114 23.5575 56.3221 24.0061C56.8248 24.1177 57.3275 24.2293 57.9303 24.3386C58.0303 24.3362 58.2328 24.4548 58.3329 24.4525C61.1536 25.3728 64.0484 24.9362 66.3168 23.1587Z" fill="#FBC788"/>
<path d="M92.0775 91.2979C94.7581 90.1269 97.2266 88.3447 98.6709 85.354C99.0593 84.729 99.4478 84.1039 99.7361 83.4811C100.017 82.4889 100.399 81.4943 100.68 80.5021C100.759 79.3913 100.838 78.2806 101.016 77.1675C101.083 75.441 100.752 73.8468 100.024 72.3851C99.8022 71.2813 99.2853 70.4308 98.6707 69.7057C98.2515 68.7297 97.6369 68.0046 96.8269 67.5305C96.2123 66.8055 95.4 66.2083 94.5947 65.9805C93.7847 65.5064 92.877 65.1578 91.974 65.0555C91.164 64.5814 90.3588 64.3536 89.4582 64.3745C88.853 64.1421 88.2526 64.156 87.6522 64.1699C86.6539 64.3162 85.658 64.5857 84.6597 64.7321C83.1658 65.1363 81.9815 66.0263 80.9044 67.2834C80.1157 67.9177 79.4318 68.7961 78.9504 69.793C77.9757 71.1709 77.306 72.7883 77.0389 74.5195C76.686 76.9919 76.7333 79.4552 77.1808 81.9091C77.5165 83.7495 78.2454 85.2112 79.272 86.5428C80.101 88.0022 81.1253 89.2106 82.4427 90.0426C85.3849 92.0691 88.9991 92.6014 92.0775 91.2979Z" fill="#FBC788"/>
<path d="M58.4549 220.811C60.3445 220.151 62.1199 218.754 63.4902 217.12C65.6446 214.606 66.572 210.764 66.6035 207.19C66.6232 202.999 65.1417 198.844 62.6807 195.82C61.2465 194.128 59.1118 192.453 57.1985 191.881C54.7824 191.197 52.6856 191.492 50.3956 192.162C48.1057 192.831 45.4533 195.48 44.4021 198.092C44.1208 199.085 43.7394 200.079 43.4581 201.072C43.0909 202.805 43.0216 204.409 43.3549 206.126C43.4763 207.233 43.7978 208.334 44.1193 209.436C44.2549 211.281 44.693 213.243 45.5244 214.825C45.8364 215.434 46.2486 216.041 46.6607 216.647C46.7631 216.768 46.7655 216.892 46.8656 216.889C47.0728 217.254 47.3778 217.493 47.5851 217.858C47.4826 217.738 47.4802 217.614 47.3802 217.617C48.7143 219.311 50.4416 220.626 52.4526 221.073C54.5661 221.64 56.1673 221.603 58.4549 220.811Z" fill="#FBC788"/>
</svg>
