<svg width="285" height="314" viewBox="0 0 285 314" fill="none" xmlns="http://www.w3.org/2000/svg">
<path d="M128.915 297.905C133.375 297.326 137.835 296.934 142.298 297.106C161.485 297.412 179.959 305.986 198.859 309.111C217.908 312.424 239.463 309.152 252.039 290.886C266.833 269.23 263.147 236.934 264.829 208.376C266.229 184.138 272.242 160.824 276.619 137.14C280.995 113.455 283.582 88.4626 278.589 64.9999C274.201 44.3528 261.328 21.6698 243.761 16.8493C234.828 14.4396 226.365 18.415 217.14 17.5091C190.21 14.7887 165.331 3.23222 137.519 3.52053C109.856 3.8083 57.0653 6.06516 36.1902 32.6268C30.1202 40.3504 27.4831 51.443 25.1415 61.9708C17.237 97.1264 9.33393 132.658 5.44922 168.926C2.85964 193.167 2.35634 218.528 9.57742 241.231C22.516 282.135 59.6342 305.482 94.5786 303.477C106.027 302.496 117.468 299.449 128.915 297.905Z" stroke="#C8686D" stroke-opacity="0.71" stroke-width="7" stroke-miterlimit="10"/>
</svg>
