<svg width="260" height="182" viewBox="0 0 260 182" fill="none" xmlns="http://www.w3.org/2000/svg">
<path d="M245.62 99.8533C245.157 97.0606 244.849 94.2678 245.003 91.4751C245.311 79.4663 252.404 67.9229 255.025 56.1003C257.801 44.1846 255.179 30.6863 240.223 22.7735C222.491 13.4643 195.97 15.6986 172.533 14.5815C152.642 13.6505 133.523 9.83378 114.095 7.04103C94.6664 4.24829 74.1589 2.57264 54.885 5.64466C37.9239 8.34432 19.2667 16.3502 15.2577 27.335C13.2532 32.9205 16.4913 38.2267 15.7203 43.9984C13.4075 60.8479 3.84765 76.3942 4.00184 93.8023C4.15604 111.117 5.85203 144.165 27.593 157.291C33.9149 161.107 43.0123 162.783 51.647 164.273C80.4808 169.3 109.623 174.326 139.382 176.84C159.272 178.516 180.088 178.888 198.745 174.42C232.359 166.414 251.633 143.234 250.091 121.357C249.32 114.189 246.853 107.021 245.62 99.8533Z" stroke="#C8686D" stroke-opacity="0.9" stroke-width="7" stroke-miterlimit="10"/>
</svg>
