<svg width="1340" height="410" viewBox="0 0 1340 410" fill="none" xmlns="http://www.w3.org/2000/svg">
<path d="M1.01355 85.5511C56.8419 70.3698 41.4789 -38.4016 65.8148 15.6244C85.2835 58.8451 59.4119 210.104 47.3029 214.391L39.6556 213.648L32.3485 211.273L25.9338 206.957L21.8136 200.99L22.5804 187.953L30.7822 174.338L85.4651 148.276C105.477 137.265 150.786 125.453 171.92 166.297C199.545 219.05 240.993 223.262 264.956 215.912C296.865 200.854 262.753 121.207 321.515 148.099C380.276 174.991 373.085 190.774 396.15 222.826L404.897 255.724L401.326 272.858L393.124 286.473C338.011 342.669 250.952 162.848 367.24 78.4529C483.527 -5.94246 580.251 151.373 586.573 207.604C597.102 255.347 601.56 328.472 687.588 303.154C795.124 271.507 754.569 150.248 846.454 221.759C938.339 293.27 911.47 412.82 996.201 319.804C1080.93 226.788 1019.31 94.3259 1099.71 192.817C1164.04 271.611 1148.33 291.782 1129.29 312.929C1085.61 358.737 978.889 340.63 1063.29 266.957C1147.7 193.284 1282.15 331.306 1338.83 409.526" stroke="#49AB8B" stroke-opacity="0.37"/>
</svg>
