<svg width="335" height="242" viewBox="0 0 335 242" fill="none" xmlns="http://www.w3.org/2000/svg">
<path d="M317.53 132.906C316.93 129.15 316.53 125.395 316.73 121.639C317.13 105.489 326.334 89.9653 329.735 74.0659C333.337 58.0413 329.935 39.8884 310.527 29.2471C287.518 16.7279 253.104 19.7325 222.691 18.2302C196.881 16.9783 172.071 11.8454 146.861 8.08967C121.65 4.33391 95.0395 2.08045 70.0293 6.21179C48.0204 9.84236 23.8103 20.6089 18.6082 35.3815C16.0071 42.893 20.209 50.029 19.2085 57.7909C16.2073 80.4507 3.80231 101.358 4.00239 124.769C4.20247 148.054 6.40322 192.498 34.6147 210.15C42.8181 215.282 54.6231 217.536 65.8277 219.539C103.243 226.299 141.058 233.06 179.674 236.44C205.484 238.693 232.495 239.194 256.705 233.185C300.323 222.418 325.333 191.246 323.333 161.825C322.332 152.186 319.131 142.546 317.53 132.906Z" stroke="#49AB8B" stroke-width="7" stroke-miterlimit="10"/>
</svg>
