<svg width="315" height="166" viewBox="0 0 315 166" fill="none" xmlns="http://www.w3.org/2000/svg">
<path d="M298.354 91.0392C297.79 88.5033 297.415 85.9673 297.603 83.4314C297.978 72.5268 306.619 62.0449 309.812 51.3095C313.194 40.4894 310 28.2324 291.779 21.0472C270.177 12.5941 237.868 14.6228 209.316 13.6084C185.084 12.7631 161.791 9.29734 138.123 6.7614C114.455 4.22546 89.4714 2.70389 65.9908 5.49343C45.328 7.94484 22.5987 15.2145 17.7147 25.1892C15.2728 30.2611 19.2176 35.0794 18.2784 40.3204C15.4607 55.6206 3.8144 69.7373 4.00225 85.5447C4.19009 101.267 6.25624 131.276 32.7423 143.195C40.4439 146.661 51.5269 148.182 62.0462 149.535C97.173 154.1 132.675 158.664 168.929 160.947C193.161 162.468 218.52 162.806 241.249 158.749C282.199 151.479 305.68 130.431 303.802 110.566C302.862 104.057 299.857 97.5481 298.354 91.0392Z" stroke="#FBC788" stroke-opacity="0.58" stroke-width="7" stroke-miterlimit="10"/>
</svg>
